<svg width="19" height="20" viewBox="0 0 19 20" fill="none" xmlns="http://www.w3.org/2000/svg">
<path d="M2.51371 15.433C2.60954 15.4713 2.69579 15.4905 2.79163 15.4905H12.6337C13.0266 15.4905 13.3525 15.1647 13.3525 14.7718C13.3525 14.3788 13.0266 14.053 12.6337 14.053H4.52621L16.7162 1.86301C16.9941 1.5851 16.9941 1.1251 16.7162 0.84718C16.581 0.713512 16.3985 0.63855 16.2083 0.63855C16.0181 0.63855 15.8356 0.713512 15.7004 0.84718L3.51038 13.0372V4.92968C3.51038 4.53676 3.18454 4.21093 2.79163 4.21093C2.39871 4.21093 2.07288 4.53676 2.07288 4.92968V14.7718C2.07288 14.8676 2.09204 14.9538 2.13038 15.0497C2.19746 15.2222 2.34121 15.3659 2.51371 15.433ZM17.6458 18.3646H1.35413C0.961209 18.3646 0.635376 18.6904 0.635376 19.0833C0.635376 19.4762 0.961209 19.8021 1.35413 19.8021H17.6458C18.0387 19.8021 18.3645 19.4762 18.3645 19.0833C18.3645 18.6904 18.0387 18.3646 17.6458 18.3646Z" fill="#6953D3"/>
</svg>
